<?xml version="1.0" encoding="utf-8"?>
<!-- Generator: Adobe Illustrator 21.1.0, SVG Export Plug-In . SVG Version: 6.00 Build 0)  -->
<svg version="1.1" id="Camada_1" xmlns="http://www.w3.org/2000/svg" xmlns:xlink="http://www.w3.org/1999/xlink" x="0px" y="0px"
	 viewBox="0 0 67.2 23.2" style="enable-background:new 0 0 67.2 23.2;" xml:space="preserve">
<style type="text/css">
	.st0{fill:#EAB543;}
</style>
<title>logo_golden</title>
<path class="st0" d="M14.8,13.9c0.4,0.1,0.7,0.3,1,0.6c0.1,0.1,0.2,0.1,0.2,0.1c0.1,0,0.1-0.1,0.2-0.2c0.1-0.2,0.1-0.4,0.1-0.6h0.2
	v2.9h-0.3c0-0.5-0.1-0.9-0.3-1.3c-0.3-0.6-0.7-1-1.3-1.3c-0.3-0.1-0.6-0.2-0.9-0.2c-0.5,0-1,0.2-1.4,0.6c-0.4,0.4-0.7,0.9-0.9,1.5
	c-0.2,0.7-0.3,1.3-0.3,2c0,2.8,0.8,4.1,2.3,4.1c0.3,0,0.6-0.1,0.9-0.2c0.1-0.1,0.2-0.1,0.2-0.3c0-0.1,0.1-0.2,0.1-0.4v-1.1
	c0-0.3,0-0.6-0.1-0.8c-0.1-0.2-0.2-0.3-0.3-0.4C14.1,19,13.8,19,13.5,19v-0.2h3.7V19c-0.1,0-0.2,0-0.4,0.1c-0.1,0.1-0.1,0.2-0.1,0.3
	c0,0.2,0,0.4,0,0.7v2.4h-0.2c0-0.2,0-0.3-0.1-0.5c-0.1-0.1-0.1-0.2-0.3-0.2c-0.2,0-0.5,0.1-0.6,0.3c-0.6,0.4-1.3,0.6-2,0.6
	c-1.2,0.1-2.3-0.3-3.2-1.1c-0.8-0.9-1.2-2-1.1-3.2c0-0.8,0.2-1.6,0.6-2.4c0.3-0.7,0.9-1.3,1.5-1.6c0.7-0.4,1.5-0.6,2.3-0.6
	C14,13.7,14.4,13.8,14.8,13.9z"/>
<path class="st0" d="M23.1,16.8c0.6,0.7,0.9,1.6,0.8,2.5c0.1,0.9-0.2,1.8-0.8,2.5c-0.6,0.5-1.4,0.8-2.2,0.8c-0.8,0-1.6-0.2-2.1-0.8
	c-0.6-0.7-0.8-1.6-0.8-2.5c-0.1-0.9,0.2-1.8,0.8-2.5c0.6-0.5,1.3-0.8,2.1-0.8C21.7,16,22.5,16.3,23.1,16.8z M20.1,17
	c-0.2,0.7-0.3,1.5-0.3,2.3c0,0.8,0.1,1.5,0.3,2.3c0.2,0.5,0.5,0.7,0.8,0.7s0.6-0.2,0.8-0.7c0.2-0.7,0.3-1.5,0.3-2.3
	c0-0.8-0.1-1.5-0.3-2.3c-0.2-0.5-0.5-0.7-0.8-0.7C20.6,16.3,20.3,16.5,20.1,17L20.1,17z"/>
<path class="st0" d="M30.6,21.1c0,0.3,0,0.6,0.2,0.8c0.1,0.2,0.4,0.3,0.6,0.3v0.3h-0.7c-0.6,0-1.2,0-1.8,0.2v-1.1
	c-0.4,0.7-1.1,1.2-1.9,1.1c-0.5,0.1-1-0.1-1.3-0.5c-0.1-0.2-0.2-0.4-0.3-0.6c-0.1-0.3-0.1-0.7-0.1-1v-3c0-0.3,0-0.6-0.2-0.8
	c-0.1-0.2-0.4-0.3-0.6-0.3v-0.3h0.7c0.6,0,1.2-0.1,1.8-0.2v5c0,0.3,0,0.5,0.1,0.8c0.1,0.2,0.3,0.3,0.6,0.3c0.3,0,0.6-0.1,0.8-0.4
	c0.2-0.3,0.4-0.6,0.3-1v-3.1c0-0.3,0-0.6-0.2-0.8c-0.1-0.2-0.4-0.3-0.6-0.3v-0.3h0.7c0.6,0,1.2,0,1.8-0.1V21.1z"/>
<path class="st0" d="M36.8,16.4c0.2,0.2,0.3,0.5,0.3,0.8c0,0.3-0.1,0.5-0.3,0.7c-0.2,0.2-0.4,0.3-0.7,0.3c-0.2,0-0.5-0.1-0.7-0.2
	c-0.2-0.1-0.2-0.3-0.2-0.6c0-0.4,0.2-0.7,0.5-0.9h-0.3c-0.3,0.1-0.6,0.3-0.8,0.5c-0.2,0.3-0.3,0.6-0.3,1v3.2c0,0.3,0.1,0.6,0.3,0.8
	c0.3,0.2,0.6,0.2,0.9,0.2v0.3h-3.6v-0.3c0.2,0,0.4,0,0.6-0.2c0.1-0.2,0.2-0.4,0.1-0.7v-3.8c0-0.3,0-0.6-0.2-0.8
	c-0.1-0.2-0.4-0.3-0.6-0.3v-0.3h0.7c0.6,0,1.2-0.1,1.8-0.2v1.1c0.1-0.3,0.4-0.6,0.7-0.8c0.3-0.2,0.7-0.3,1-0.3
	C36.3,16,36.6,16.1,36.8,16.4z"/>
<path class="st0" d="M47.3,22c0.2,0.1,0.4,0.2,0.6,0.2v0.3h-3.1v-0.3c0.2,0,0.3,0,0.5-0.2c0.1-0.2,0.2-0.5,0.1-0.7v-3.8
	c0-0.3,0-0.5-0.2-0.8c-0.1-0.2-0.3-0.3-0.6-0.3c-0.3,0-0.6,0.1-0.8,0.4c-0.2,0.3-0.4,0.6-0.4,0.9v3.5c0,0.2,0,0.5,0.2,0.7
	c0.1,0.1,0.3,0.2,0.5,0.2v0.3h-3v-0.3c0.2,0,0.3-0.1,0.5-0.2c0.1-0.2,0.1-0.4,0.1-0.7v-3.7c0-0.3,0-0.5-0.1-0.8
	c-0.1-0.2-0.3-0.3-0.5-0.3c-0.3,0-0.6,0.1-0.8,0.4C40.1,17.2,40,17.6,40,18v3.3c0,0.2,0,0.5,0.1,0.7c0.1,0.1,0.3,0.2,0.5,0.2v0.3
	h-3.1v-0.3c0.2,0,0.4,0,0.6-0.2c0.1-0.2,0.2-0.4,0.2-0.7v-3.8c0-0.3,0-0.6-0.2-0.8c-0.1-0.2-0.4-0.3-0.6-0.3v-0.3h0.7
	c0.6,0,1.2-0.1,1.8-0.2v1.1c0.3-0.7,1-1.1,1.8-1.1c0.5,0,1,0.1,1.3,0.5c0.2,0.2,0.3,0.5,0.3,0.7c0.2-0.4,0.5-0.7,0.8-0.9
	c0.4-0.2,0.8-0.3,1.2-0.3c0.5,0,1,0.1,1.3,0.5c0.1,0.2,0.2,0.3,0.2,0.5c0.1,0.3,0.1,0.7,0.1,1v3.2C47,21.5,47.1,21.8,47.3,22z"/>
<path class="st0" d="M53.4,20.6l0.2,0.1c-0.2,0.5-0.5,1-0.9,1.3c-0.4,0.4-1,0.6-1.5,0.5c-0.8,0-1.5-0.3-2-0.8
	c-0.5-0.7-0.8-1.5-0.8-2.4c-0.1-0.9,0.2-1.8,0.8-2.5c0.6-0.6,1.3-0.9,2.1-0.9c1.5,0,2.3,0.9,2.3,2.7h-3.4v0.6c0,0.5,0.1,0.9,0.2,1.3
	c0.1,0.3,0.3,0.6,0.6,0.8c0.2,0.2,0.5,0.2,0.8,0.2C52.5,21.5,53.1,21.2,53.4,20.6z M50.6,16.8c-0.2,0.5-0.3,1.1-0.3,1.6h1.9
	c0-0.5,0-1.1-0.2-1.6c-0.1-0.4-0.3-0.6-0.6-0.6C51,16.3,50.7,16.5,50.6,16.8z"/>
<path class="st0" d="M56.8,16.2h1.4v0.2h-1.4v4.8c0,0.2,0,0.4,0.1,0.5c0.1,0.1,0.3,0.2,0.4,0.1c0.3,0,0.6-0.2,0.8-0.7l0.2,0.1
	c-0.2,0.7-0.9,1.3-1.6,1.2c-0.4,0-0.9-0.1-1.2-0.4c-0.2-0.2-0.3-0.4-0.3-0.6c-0.1-0.3-0.1-0.7-0.1-1v-4.1h-1v-0.2h1v-1.6
	c0.6,0,1.2-0.1,1.7-0.4L56.8,16.2z"/>
<g>
	<path class="st0" d="M5.1,1.7c0.2,0.1,0.5,0.2,0.8,0.3c0.1,0,0.2,0.1,0.2,0.1c0.1,0,0.1,0,0.2,0c0.1,0,0.1,0,0.2-0.1
		c0-0.1,0.1-0.2,0.1-0.4h0.3c0,0.5-0.1,1.5-0.1,2.7H6.5c0-0.4-0.1-0.8-0.3-1.2C6,2.8,5.8,2.5,5.5,2.3S4.9,1.9,4.5,1.9
		c-0.4,0-0.7,0.1-1,0.3C3.3,2.4,3.1,2.7,3.1,3.1c0,0.3,0.1,0.5,0.2,0.7s0.3,0.4,0.5,0.6c0.2,0.2,0.6,0.4,1,0.7l0.4,0.3
		C5.7,5.7,6.1,6,6.3,6.2C6.6,6.5,6.8,6.7,7,7c0.2,0.3,0.3,0.7,0.3,1.1c0,0.5-0.1,0.9-0.4,1.3C6.6,9.8,6.2,10,5.8,10.2
		c-0.5,0.2-1,0.3-1.5,0.3c-0.5,0-0.8,0-1.1-0.1c-0.3-0.1-0.6-0.2-0.8-0.3C2.1,9.9,2,9.8,1.9,9.8c-0.1,0-0.1,0-0.2,0.1
		c0,0.1-0.1,0.2-0.1,0.4H1.4c0-0.5,0-1.6,0-3.3h0.3C1.8,8,2,8.8,2.3,9.3c0.3,0.6,0.9,0.8,1.6,0.8c0.4,0,0.8-0.1,1.1-0.3
		s0.4-0.6,0.4-1C5.4,8.3,5.2,8,5,7.6C4.7,7.3,4.2,7,3.6,6.6C3.1,6.2,2.7,6,2.4,5.7C2.1,5.5,1.9,5.2,1.7,4.9C1.5,4.6,1.4,4.2,1.4,3.8
		c0-0.5,0.1-0.9,0.4-1.2s0.6-0.6,1-0.7c0.4-0.2,0.9-0.2,1.4-0.2C4.5,1.6,4.9,1.6,5.1,1.7z"/>
	<path class="st0" d="M10.5,4.1h1.4v0.2h-1.4v4.9c0,0.2,0,0.4,0.1,0.5c0.1,0.1,0.2,0.2,0.4,0.2c0.3,0,0.6-0.2,0.8-0.7L12,9.2
		c-0.3,0.8-0.9,1.2-1.7,1.2c-0.5,0-0.9-0.1-1.2-0.4C9,9.9,8.9,9.7,8.8,9.4c-0.1-0.3-0.1-0.6-0.1-1V4.3h-1V4.1h1V2.5
		c0.7,0,1.2-0.1,1.7-0.4V4.1z"/>
	<path class="st0" d="M17.4,8.5l0.2,0.1c-0.2,0.5-0.4,1-0.9,1.3c-0.4,0.4-0.9,0.5-1.5,0.5c-0.9,0-1.5-0.3-2-0.8
		c-0.5-0.5-0.8-1.3-0.8-2.4c0-1.1,0.3-1.9,0.8-2.5c0.5-0.6,1.3-0.9,2.1-0.9c1.5,0,2.3,0.9,2.3,2.7h-3.4c0,0.1,0,0.3,0,0.6
		c0,0.5,0.1,1,0.2,1.3c0.1,0.4,0.3,0.6,0.6,0.8c0.2,0.2,0.5,0.2,0.8,0.2C16.4,9.5,17,9.2,17.4,8.5z M14.6,4.7
		c-0.2,0.4-0.3,0.9-0.4,1.7h1.9c0-0.6,0-1.2-0.2-1.6c-0.1-0.4-0.4-0.6-0.6-0.6C15,4.1,14.7,4.3,14.6,4.7z"/>
	<path class="st0" d="M18.7,10c-0.3-0.3-0.4-0.6-0.4-1c0-0.4,0.1-0.7,0.3-0.9c0.2-0.2,0.4-0.4,0.7-0.5c0.3-0.1,0.6-0.3,1-0.4
		c0.4-0.2,0.8-0.3,1-0.4c0.2-0.1,0.3-0.3,0.3-0.5V5.2c0-0.3-0.1-0.6-0.2-0.8S21,4.1,20.7,4.1c-0.4,0-0.7,0.1-0.9,0.3
		c0.2,0.1,0.4,0.2,0.5,0.4s0.2,0.3,0.2,0.6c0,0.3-0.1,0.5-0.3,0.7s-0.4,0.2-0.7,0.2c-0.3,0-0.5-0.1-0.7-0.3
		c-0.2-0.2-0.2-0.4-0.2-0.7c0-0.2,0.1-0.4,0.2-0.6s0.3-0.3,0.5-0.4c0.2-0.1,0.5-0.2,0.8-0.3s0.7-0.1,1-0.1c0.4,0,0.7,0,1,0.1
		c0.3,0.1,0.5,0.2,0.7,0.4c0.2,0.2,0.3,0.4,0.4,0.7c0.1,0.3,0.1,0.6,0.1,1v3.3c0,0.2,0,0.3,0.1,0.4c0,0.1,0.1,0.1,0.2,0.1
		c0.1,0,0.3-0.1,0.4-0.2l0.1,0.2c-0.4,0.3-0.8,0.4-1.3,0.4c-0.4,0-0.8-0.1-0.9-0.3s-0.3-0.4-0.3-0.7c-0.4,0.7-1,1-1.8,1
		C19.4,10.4,19,10.2,18.7,10z M21.6,9.1V6.6C21.5,6.8,21.3,7,21,7.2c-0.3,0.2-0.6,0.4-0.7,0.6s-0.2,0.5-0.2,0.9
		c0,0.3,0.1,0.6,0.2,0.7c0.1,0.2,0.3,0.2,0.5,0.2C21.1,9.6,21.4,9.4,21.6,9.1z"/>
	<path class="st0" d="M31,9.8c0.1,0.1,0.2,0.2,0.3,0.2v0.3c-0.6,0-1.1,0-1.3,0c-0.3,0-0.8,0-1.6,0V10c0.1,0,0.2,0,0.3-0.1
		c0.1,0,0.1-0.1,0.1-0.2c0,0,0-0.1-0.1-0.2l-1.2-2.2c-0.1-0.1-0.2-0.2-0.3-0.3S27.1,7.1,27,7.1v2.1c0,0.3,0.1,0.6,0.2,0.7
		c0.1,0.1,0.3,0.2,0.6,0.2v0.3c-0.8,0-1.3,0-1.6,0c-0.3,0-0.8,0-1.7,0V10c0.3,0,0.5-0.1,0.6-0.2c0.1-0.1,0.2-0.4,0.2-0.7V2.3
		c0-0.4-0.1-0.6-0.2-0.8c-0.1-0.2-0.3-0.3-0.6-0.3V1c0.3,0,0.5,0,0.7,0C25.9,1,26.5,1,27,0.9v6c0.2,0,0.3,0,0.4-0.1
		c0.1,0,0.2-0.1,0.3-0.2l0.9-0.9C28.9,5.4,29,5.2,29,4.9c0-0.2-0.1-0.3-0.3-0.4s-0.4-0.2-0.7-0.2V4.1c0.4,0,0.9,0,1.4,0
		c0.7,0,1.1,0,1.4,0v0.2c-0.5,0.1-1,0.4-1.5,0.9L28.6,6l2,3.4C30.8,9.6,30.9,9.7,31,9.8z"/>
	<path class="st0" d="M40,2.1c-0.1,0-0.2,0.1-0.2,0.3S39.7,2.7,39.7,3v6c0,0.3,0,0.5,0.1,0.7S39.8,9.9,40,10c0.1,0,0.3,0.1,0.6,0.1
		v0.2c-0.4,0-1,0-1.8,0c-0.8,0-1.4,0-1.9,0v-0.2c0.3,0,0.5,0,0.6-0.1c0.1,0,0.2-0.1,0.3-0.3c0-0.1,0.1-0.4,0.1-0.7V6.1h-3.2V9
		c0,0.3,0,0.5,0.1,0.7c0,0.1,0.1,0.2,0.2,0.3c0.1,0,0.3,0.1,0.6,0.1v0.2c-0.4,0-1,0-1.8,0c-0.9,0-1.5,0-1.9,0v-0.2
		c0.3,0,0.5,0,0.6-0.1c0.1,0,0.2-0.1,0.3-0.3c0-0.1,0.1-0.4,0.1-0.7V3c0-0.3,0-0.5-0.1-0.7c0-0.1-0.1-0.2-0.3-0.3
		C32.2,2,32,2,31.7,2V1.8c0.4,0,1,0,1.9,0c0.8,0,1.4,0,1.8,0V2c-0.3,0-0.5,0-0.6,0.1c-0.1,0-0.2,0.1-0.2,0.3c0,0.1-0.1,0.4-0.1,0.7
		v2.8h3.2V3c0-0.3,0-0.5-0.1-0.7c0-0.1-0.1-0.2-0.3-0.3C37.3,2,37.1,2,36.8,2V1.8c0.5,0,1.1,0,1.9,0c0.8,0,1.4,0,1.8,0V2
		C40.3,2,40.1,2,40,2.1z"/>
	<path class="st0" d="M46.3,4.7c0.5,0.5,0.8,1.4,0.8,2.5s-0.3,2-0.8,2.5s-1.2,0.8-2.2,0.8c-0.9,0-1.6-0.3-2.2-0.8s-0.8-1.4-0.8-2.5
		s0.3-2,0.8-2.5s1.2-0.8,2.2-0.8C45,3.9,45.8,4.2,46.3,4.7z M43.3,4.9C43.1,5.4,43,6.2,43,7.2c0,1,0.1,1.8,0.3,2.3
		c0.2,0.5,0.5,0.7,0.8,0.7c0.4,0,0.6-0.2,0.8-0.7c0.2-0.5,0.3-1.3,0.3-2.3s-0.1-1.8-0.3-2.3c-0.2-0.5-0.5-0.7-0.8-0.7
		C43.8,4.1,43.5,4.4,43.3,4.9z"/>
	<path class="st0" d="M53.8,9c0,0.4,0.1,0.6,0.2,0.8c0.1,0.2,0.3,0.3,0.6,0.3v0.3c-0.2,0-0.5,0-0.7,0c-0.7,0-1.3,0.1-1.8,0.2V9.3
		c-0.4,0.7-1,1.1-1.9,1.1c-0.6,0-1-0.2-1.3-0.5c-0.1-0.2-0.2-0.4-0.3-0.6s-0.1-0.6-0.1-1v-3c0-0.4-0.1-0.6-0.2-0.8
		c-0.1-0.2-0.3-0.3-0.6-0.3V4.1c0.2,0,0.5,0,0.7,0c0.7,0,1.3-0.1,1.8-0.2v5c0,0.3,0,0.6,0.2,0.8s0.3,0.3,0.6,0.3
		c0.3,0,0.6-0.1,0.8-0.4c0.2-0.3,0.3-0.6,0.3-1V5.4c0-0.4-0.1-0.6-0.2-0.8c-0.1-0.2-0.3-0.3-0.6-0.3V4.1c0.3,0,0.5,0,0.7,0
		c0.7,0,1.3-0.1,1.8-0.2V9z"/>
	<path class="st0" d="M58.4,4c0.3,0.1,0.5,0.2,0.6,0.3c0.1,0.1,0.2,0.1,0.2,0.1c0.1,0,0.1,0,0.2-0.1c0.1-0.1,0.1-0.2,0.1-0.3h0.3
		c0,0.4,0,1.1,0,2.1h-0.3c-0.1-0.5-0.2-1-0.5-1.3c-0.2-0.4-0.6-0.5-1.1-0.5c-0.2,0-0.4,0.1-0.6,0.2C57.1,4.5,57,4.7,57,4.9
		c0,0.3,0.1,0.5,0.3,0.7s0.5,0.4,0.9,0.7l0.3,0.3c0.5,0.4,0.9,0.7,1.1,1C59.8,7.9,60,8.2,60,8.7c0,0.4-0.1,0.7-0.3,0.9
		c-0.2,0.3-0.5,0.5-0.8,0.6c-0.3,0.1-0.7,0.2-1.1,0.2c-0.4,0-0.8-0.1-1.1-0.3C56.3,10.1,56.1,10,56,10c-0.1,0-0.2,0-0.2,0.1
		c-0.1,0.1-0.1,0.2-0.1,0.3h-0.3c0-0.5,0-1.3,0-2.4h0.3c0.2,1.5,0.7,2.2,1.6,2.2c0.2,0,0.4-0.1,0.6-0.2c0.2-0.1,0.2-0.4,0.2-0.6
		c0-0.2-0.1-0.4-0.2-0.6s-0.2-0.3-0.4-0.5c-0.2-0.1-0.4-0.3-0.7-0.6c-0.4-0.3-0.6-0.5-0.8-0.7c-0.2-0.2-0.3-0.4-0.5-0.6
		c-0.1-0.2-0.2-0.5-0.2-0.8c0-0.5,0.2-0.9,0.6-1.2c0.4-0.3,0.9-0.4,1.5-0.4C57.8,3.9,58.1,3.9,58.4,4z"/>
	<path class="st0" d="M65.8,8.5L66,8.6c-0.2,0.5-0.4,1-0.9,1.3c-0.4,0.4-0.9,0.5-1.5,0.5c-0.9,0-1.5-0.3-2-0.8s-0.8-1.3-0.8-2.4
		c0-1.1,0.3-1.9,0.8-2.5c0.5-0.6,1.3-0.9,2.1-0.9c1.5,0,2.3,0.9,2.3,2.7h-3.4c0,0.1,0,0.3,0,0.6c0,0.5,0.1,1,0.2,1.3
		c0.1,0.4,0.3,0.6,0.6,0.8s0.5,0.2,0.8,0.2C64.9,9.5,65.4,9.2,65.8,8.5z M63,4.7c-0.2,0.4-0.3,0.9-0.4,1.7h1.9c0-0.6,0-1.2-0.2-1.6
		c-0.1-0.4-0.4-0.6-0.6-0.6C63.4,4.1,63.2,4.3,63,4.7z"/>
</g>
</svg>
