<svg id="Camada_1" data-name="Camada 1" xmlns="http://www.w3.org/2000/svg" viewBox="0 0 57 21"><defs><style>.cls-1{fill:#fff;}</style></defs><title>logo_white</title><path class="cls-1" d="M3.64,2.24a3.08,3.08,0,0,1,.63.29l.2.1a.35.35,0,0,0,.15,0,.15.15,0,0,0,.14-.1,1.18,1.18,0,0,0,.08-.33h.23Q5,2.9,5,4.51H4.78a3.28,3.28,0,0,0-.25-1A2,2,0,0,0,4,2.68a1.35,1.35,0,0,0-.87-.31,1.14,1.14,0,0,0-.79.28A1,1,0,0,0,2,3.4,1.2,1.2,0,0,0,2.13,4a1.68,1.68,0,0,0,.42.47q.27.22.83.59l.32.22A9.94,9.94,0,0,1,4.63,6a2.45,2.45,0,0,1,.55.67,1.8,1.8,0,0,1,.22.9,1.73,1.73,0,0,1-.33,1.08,2,2,0,0,1-.9.65,3.44,3.44,0,0,1-1.25.22A3.65,3.65,0,0,1,2,9.39a3.07,3.07,0,0,1-.68-.27A.72.72,0,0,0,1,9a.15.15,0,0,0-.14.1,1.2,1.2,0,0,0-.08.33H.52q0-.63,0-2.7H.79a3.89,3.89,0,0,0,.5,1.81,1.44,1.44,0,0,0,1.32.69,1.35,1.35,0,0,0,.89-.29,1,1,0,0,0,.35-.83,1.39,1.39,0,0,0-.36-1,5.74,5.74,0,0,0-1.14-.9q-.6-.39-1-.68A2.47,2.47,0,0,1,.8,4.88,1.79,1.79,0,0,1,.57,4a1.67,1.67,0,0,1,.3-1,1.81,1.81,0,0,1,.82-.61,3,3,0,0,1,1.12-.2A2.78,2.78,0,0,1,3.64,2.24Z"/><path class="cls-1" d="M8.08,4.18H9.26v.2H8.08v4a.67.67,0,0,0,.1.43A.41.41,0,0,0,8.52,9Q9,9,9.2,8.37l.17.09A1.38,1.38,0,0,1,8,9.49a1.36,1.36,0,0,1-1-.34,1.08,1.08,0,0,1-.29-.52,3.92,3.92,0,0,1-.07-.86V4.38H5.8v-.2h.84V2.85a3.06,3.06,0,0,0,1.44-.32Z"/><path class="cls-1" d="M13.79,7.87l.18.06A2.39,2.39,0,0,1,13.26,9,1.87,1.87,0,0,1,12,9.49a2.18,2.18,0,0,1-1.69-.68,2.84,2.84,0,0,1-.62-2,2.91,2.91,0,0,1,.67-2.07A2.32,2.32,0,0,1,12.11,4Q14,4,14,6.26H11.18q0,.15,0,.47a2.85,2.85,0,0,0,.19,1.1,1.4,1.4,0,0,0,.48.64,1.11,1.11,0,0,0,.64.2A1.51,1.51,0,0,0,13.79,7.87ZM11.46,4.69a3.57,3.57,0,0,0-.29,1.38h1.57a3.83,3.83,0,0,0-.15-1.31q-.18-.51-.53-.52A.69.69,0,0,0,11.46,4.69Z"/><path class="cls-1" d="M14.94,9.09a1.21,1.21,0,0,1-.31-.87,1.16,1.16,0,0,1,.23-.75A1.61,1.61,0,0,1,15.43,7a8.49,8.49,0,0,1,.85-.34,4.43,4.43,0,0,0,.8-.35.48.48,0,0,0,.25-.42V5.13a1,1,0,0,0-.19-.65.74.74,0,0,0-.6-.23,1,1,0,0,0-.73.24.93.93,0,0,1,.44.3.75.75,0,0,1,.15.47.68.68,0,0,1-.23.54.82.82,0,0,1-.56.2.67.67,0,0,1-.54-.22.81.81,0,0,1-.19-.55A.82.82,0,0,1,15,4.74a1.34,1.34,0,0,1,.42-.37,2.31,2.31,0,0,1,.67-.25A3.92,3.92,0,0,1,17,4a3.21,3.21,0,0,1,.85.1,1.34,1.34,0,0,1,.6.34,1.1,1.1,0,0,1,.29.54,4,4,0,0,1,.08.87V8.6a.9.9,0,0,0,0,.34A.17.17,0,0,0,19,9a.62.62,0,0,0,.36-.17l.1.17a1.67,1.67,0,0,1-1.1.37,1.07,1.07,0,0,1-.77-.22.83.83,0,0,1-.23-.59,1.62,1.62,0,0,1-1.47.81A1.26,1.26,0,0,1,14.94,9.09Zm2.4-.72v-2a1.53,1.53,0,0,1-.51.44,2.43,2.43,0,0,0-.59.5A1.13,1.13,0,0,0,16,8a.9.9,0,0,0,.17.6.57.57,0,0,0,.45.2A.83.83,0,0,0,17.34,8.37Z"/><path class="cls-1" d="M25.09,9a.55.55,0,0,0,.26.17v.21l-1,0L23,9.35V9.14a.42.42,0,0,0,.22,0,.16.16,0,0,0,.08-.14.38.38,0,0,0,0-.15L22.27,7a.6.6,0,0,0-.21-.23.77.77,0,0,0-.28-.08V8.42a.91.91,0,0,0,.13.56.59.59,0,0,0,.47.16v.21l-1.3,0-1.38,0V9.14A.66.66,0,0,0,20.2,9a.83.83,0,0,0,.15-.56V2.72A1.2,1.2,0,0,0,20.2,2a.56.56,0,0,0-.5-.21V1.63l.62,0a6.42,6.42,0,0,0,1.46-.14v5a1.24,1.24,0,0,0,.35-.08.72.72,0,0,0,.25-.18l.76-.74a.92.92,0,0,0,.33-.61.41.41,0,0,0-.21-.36,1.15,1.15,0,0,0-.56-.16v-.2q.55,0,1.17,0,.83,0,1.17,0v.2a2.74,2.74,0,0,0-1.25.77l-.64.66,1.68,2.81A3.69,3.69,0,0,0,25.09,9Z"/><path class="cls-1" d="M34.82,2.55a.35.35,0,0,0-.21.23,2,2,0,0,0-.05.55v5a2,2,0,0,0,.05.55.35.35,0,0,0,.21.23,1.72,1.72,0,0,0,.49.08v.2c-.33,0-.83,0-1.52,0s-1.2,0-1.57,0v-.2a1.75,1.75,0,0,0,.48-.08.35.35,0,0,0,.21-.23A2,2,0,0,0,33,8.29V5.89H30.32v2.4a2,2,0,0,0,.05.55.35.35,0,0,0,.21.23,1.72,1.72,0,0,0,.49.08v.2q-.54,0-1.51,0T28,9.35v-.2a1.75,1.75,0,0,0,.49-.08.35.35,0,0,0,.21-.23,2,2,0,0,0,.05-.55v-5a2,2,0,0,0-.05-.55.35.35,0,0,0-.21-.23A1.73,1.73,0,0,0,28,2.47v-.2q.51,0,1.58,0t1.51,0v.2a1.7,1.7,0,0,0-.49.08.35.35,0,0,0-.21.23,2,2,0,0,0-.05.55V5.69H33V3.33a2,2,0,0,0-.05-.55.35.35,0,0,0-.21-.23,1.73,1.73,0,0,0-.48-.08v-.2q.56,0,1.57,0c.69,0,1.19,0,1.52,0v.2A1.7,1.7,0,0,0,34.82,2.55Z"/><path class="cls-1" d="M40.07,4.69a2.85,2.85,0,0,1,.65,2.07,2.83,2.83,0,0,1-.65,2.07,2.81,2.81,0,0,1-3.59,0,2.82,2.82,0,0,1-.66-2.07,2.84,2.84,0,0,1,.66-2.07,2.79,2.79,0,0,1,3.59,0Zm-2.48.17a5.34,5.34,0,0,0-.26,1.9,5.3,5.3,0,0,0,.26,1.9q.25.62.68.62T39,8.67a5.41,5.41,0,0,0,.25-1.91A5.34,5.34,0,0,0,39,4.85q-.25-.62-.68-.62T37.59,4.86Z"/><path class="cls-1" d="M46.32,8.26a1.2,1.2,0,0,0,.15.67.56.56,0,0,0,.5.21v.21q-.31,0-.62,0a6.45,6.45,0,0,0-1.46.14v-.9a1.65,1.65,0,0,1-1.61.93,1.38,1.38,0,0,1-1.09-.39,1.21,1.21,0,0,1-.24-.5,3.5,3.5,0,0,1-.07-.8V5.27a1.2,1.2,0,0,0-.15-.67.56.56,0,0,0-.5-.21V4.18q.31,0,.62,0a6.45,6.45,0,0,0,1.46-.14V8.21a1.25,1.25,0,0,0,.13.63.51.51,0,0,0,.47.21.87.87,0,0,0,.69-.33,1.23,1.23,0,0,0,.29-.83V5.27a1.2,1.2,0,0,0-.15-.67.56.56,0,0,0-.5-.21V4.18l.62,0a6.45,6.45,0,0,0,1.46-.14Z"/><path class="cls-1" d="M50.08,4.13a1.7,1.7,0,0,1,.49.21.32.32,0,0,0,.18.07.19.19,0,0,0,.16-.09A.62.62,0,0,0,51,4h.21q0,.51,0,1.76H51a2.54,2.54,0,0,0-.4-1.1,1,1,0,0,0-.89-.44.73.73,0,0,0-.49.17.59.59,0,0,0-.2.47.82.82,0,0,0,.23.58,5,5,0,0,0,.72.6l.29.21a5.2,5.2,0,0,1,.9.82,1.39,1.39,0,0,1,.29.9,1.26,1.26,0,0,1-.25.78,1.61,1.61,0,0,1-.69.52,2.44,2.44,0,0,1-1,.18,2,2,0,0,1-.94-.21l-.46-.21a.15.15,0,0,0-.18.06.71.71,0,0,0-.12.28h-.21q0-.57,0-2h.21q.2,1.84,1.35,1.84a.74.74,0,0,0,.5-.18.67.67,0,0,0,.2-.53,1,1,0,0,0-.12-.5,1.5,1.5,0,0,0-.31-.39l-.57-.47q-.45-.36-.68-.58a2,2,0,0,1-.4-.52,1.36,1.36,0,0,1-.17-.67,1.19,1.19,0,0,1,.5-1A2,2,0,0,1,49.38,4,2.44,2.44,0,0,1,50.08,4.13Z"/><path class="cls-1" d="M56.28,7.87l.18.06A2.38,2.38,0,0,1,55.74,9a1.87,1.87,0,0,1-1.29.46,2.18,2.18,0,0,1-1.68-.68,2.84,2.84,0,0,1-.62-2,2.91,2.91,0,0,1,.67-2.07A2.32,2.32,0,0,1,54.6,4q1.88,0,1.88,2.22H53.67c0,.1,0,.26,0,.47a2.84,2.84,0,0,0,.19,1.1,1.4,1.4,0,0,0,.48.64,1.11,1.11,0,0,0,.63.2A1.51,1.51,0,0,0,56.28,7.87ZM53.94,4.69a3.56,3.56,0,0,0-.29,1.38h1.57a3.84,3.84,0,0,0-.16-1.31q-.18-.51-.53-.52A.69.69,0,0,0,53.94,4.69Z"/><path class="cls-1" d="M12.86,12.3a3.64,3.64,0,0,1,.83.48.36.36,0,0,0,.2.09c.07,0,.12,0,.16-.14a1.71,1.71,0,0,0,.09-.46h.23q0,.68,0,2.42H14.1a4.89,4.89,0,0,0-.23-1.1,1.62,1.62,0,0,0-.52-.71,1.7,1.7,0,0,0-.59-.36,2.07,2.07,0,0,0-.72-.13,1.56,1.56,0,0,0-1.16.48,2.86,2.86,0,0,0-.69,1.25A6.28,6.28,0,0,0,10,15.83q0,3.46,1.92,3.46a1.17,1.17,0,0,0,.71-.2.52.52,0,0,0,.19-.21.75.75,0,0,0,.06-.31v-1a2.13,2.13,0,0,0-.08-.69.48.48,0,0,0-.29-.29,2.22,2.22,0,0,0-.65-.1v-.2q.62,0,1.71,0,.89,0,1.34,0v.2a.66.66,0,0,0-.29.08.35.35,0,0,0-.12.23,3,3,0,0,0,0,.55v2h-.2a1.15,1.15,0,0,0-.09-.39c0-.12-.12-.18-.2-.18a1.31,1.31,0,0,0-.54.21,3.31,3.31,0,0,1-1.64.5,3.53,3.53,0,0,1-2.65-.94,3.65,3.65,0,0,1-.92-2.66,4,4,0,0,1,.46-2A3.33,3.33,0,0,1,9.94,12.6a3.69,3.69,0,0,1,1.87-.47A2.83,2.83,0,0,1,12.86,12.3Z"/><path class="cls-1" d="M19.73,14.69a2.85,2.85,0,0,1,.65,2.08,2.83,2.83,0,0,1-.65,2.07,2.43,2.43,0,0,1-1.8.65,2.43,2.43,0,0,1-1.79-.65,2.82,2.82,0,0,1-.65-2.07,2.84,2.84,0,0,1,.65-2.08A2.43,2.43,0,0,1,17.93,14,2.42,2.42,0,0,1,19.73,14.69Zm-2.49.17A5.35,5.35,0,0,0,17,16.77a5.31,5.31,0,0,0,.25,1.9q.26.62.69.62t.69-.62a5.38,5.38,0,0,0,.25-1.91,5.34,5.34,0,0,0-.25-1.91q-.25-.62-.69-.62T17.25,14.86Z"/><path class="cls-1" d="M26,18.26a1.2,1.2,0,0,0,.15.67.56.56,0,0,0,.49.21v.21c-.21,0-.41,0-.62,0a6.42,6.42,0,0,0-1.46.14v-.9a1.64,1.64,0,0,1-1.61.93,1.37,1.37,0,0,1-1.09-.39,1.2,1.2,0,0,1-.23-.5,3.47,3.47,0,0,1-.08-.8V15.27a1.2,1.2,0,0,0-.15-.67.56.56,0,0,0-.5-.21v-.21l.62,0A6.49,6.49,0,0,0,23,14.07v4.14a1.26,1.26,0,0,0,.13.63.51.51,0,0,0,.48.21.87.87,0,0,0,.69-.33,1.23,1.23,0,0,0,.28-.83V15.27a1.2,1.2,0,0,0-.15-.67.56.56,0,0,0-.49-.21v-.21l.62,0A6.49,6.49,0,0,0,26,14.07Z"/><path class="cls-1" d="M31.18,14.31a1,1,0,0,1,.23.65.86.86,0,0,1-.21.6.73.73,0,0,1-.56.24.79.79,0,0,1-.54-.17.59.59,0,0,1-.2-.47.91.91,0,0,1,.44-.78h-.12l-.16,0a1,1,0,0,0-.65.46,1.47,1.47,0,0,0-.27.82v2.65a.78.78,0,0,0,.23.64,1.14,1.14,0,0,0,.71.18v.21h-.23l-1.36,0-1.23,0h-.2v-.21a.66.66,0,0,0,.5-.16.86.86,0,0,0,.14-.56V15.27a1.24,1.24,0,0,0-.14-.67.56.56,0,0,0-.5-.21v-.21l.62,0a6.32,6.32,0,0,0,1.46-.14V15a1.7,1.7,0,0,1,.55-.7A1.33,1.33,0,0,1,30.5,14,.84.84,0,0,1,31.18,14.31Z"/><path class="cls-1" d="M39.92,19a.65.65,0,0,0,.49.16v.21l-1.32,0-1.24,0v-.21a.42.42,0,0,0,.38-.15,1.07,1.07,0,0,0,.1-.57V15.31a1.22,1.22,0,0,0-.12-.62.51.51,0,0,0-.47-.21.84.84,0,0,0-.64.31,1.33,1.33,0,0,0-.33.76v2.87a.93.93,0,0,0,.13.56.56.56,0,0,0,.46.16v.21l-1.26,0-1.24,0v-.21a.42.42,0,0,0,.38-.16,1.08,1.08,0,0,0,.1-.56V15.31a1.37,1.37,0,0,0-.11-.62.44.44,0,0,0-.43-.21.87.87,0,0,0-.69.33,1.23,1.23,0,0,0-.29.83v2.78a1.07,1.07,0,0,0,.11.56.42.42,0,0,0,.38.16v.21l-1.18,0-1.38,0v-.21a.65.65,0,0,0,.5-.16.85.85,0,0,0,.14-.56V15.27a1.23,1.23,0,0,0-.14-.67.56.56,0,0,0-.5-.21v-.21l.62,0a6.33,6.33,0,0,0,1.46-.14V15A1.57,1.57,0,0,1,35.36,14a1.39,1.39,0,0,1,1.1.39,1.08,1.08,0,0,1,.25.6,1.63,1.63,0,0,1,.68-.76,2.05,2.05,0,0,1,1-.23,1.39,1.39,0,0,1,1.1.39,1.09,1.09,0,0,1,.23.49,3.85,3.85,0,0,1,.07.81v2.69A.83.83,0,0,0,39.92,19Z"/><path class="cls-1" d="M45,17.86l.18.06a2.37,2.37,0,0,1-.71,1.1,1.87,1.87,0,0,1-1.29.46,2.18,2.18,0,0,1-1.68-.67,2.84,2.84,0,0,1-.62-2,2.91,2.91,0,0,1,.67-2.06A2.32,2.32,0,0,1,43.36,14q1.88,0,1.88,2.22H42.43c0,.1,0,.26,0,.47a2.86,2.86,0,0,0,.18,1.1,1.4,1.4,0,0,0,.48.64,1.11,1.11,0,0,0,.63.2A1.51,1.51,0,0,0,45,17.86Zm-2.33-3.17a3.56,3.56,0,0,0-.29,1.38H44a3.82,3.82,0,0,0-.15-1.3c-.12-.34-.29-.51-.53-.51A.69.69,0,0,0,42.71,14.69Z"/><path class="cls-1" d="M47.85,14.18H49v.2H47.85v4a.67.67,0,0,0,.1.42.42.42,0,0,0,.34.13q.43,0,.68-.6l.17.09a1.38,1.38,0,0,1-1.37,1,1.36,1.36,0,0,1-1-.34,1.08,1.08,0,0,1-.29-.52,3.93,3.93,0,0,1-.08-.87V14.38h-.84v-.2h.84V12.85a3.06,3.06,0,0,0,1.44-.32Z"/></svg>