<svg id="Camada_1" data-name="Camada 1" xmlns="http://www.w3.org/2000/svg" viewBox="0 0 67.15 21.56"><title>logo_pb</title><path d="M4.17,1.58a3.75,3.75,0,0,1,.76.35l.23.12a.42.42,0,0,0,.17,0A.18.18,0,0,0,5.5,2a1.43,1.43,0,0,0,.1-.4h.28q-.06.8-.06,2.74H5.54a3.94,3.94,0,0,0-.29-1.24,2.4,2.4,0,0,0-.7-1A1.62,1.62,0,0,0,3.5,1.75a1.37,1.37,0,0,0-1,.33A1.14,1.14,0,0,0,2.18,3a1.44,1.44,0,0,0,.18.73,2,2,0,0,0,.5.57q.32.26,1,.7l.38.26a11.82,11.82,0,0,1,1.12.82A3,3,0,0,1,6,6.87a2.16,2.16,0,0,1,.26,1.07,2.08,2.08,0,0,1-.4,1.29A2.41,2.41,0,0,1,4.81,10a4.11,4.11,0,0,1-1.51.26,4.36,4.36,0,0,1-1.12-.12,3.67,3.67,0,0,1-.82-.32A.87.87,0,0,0,1,9.67.18.18,0,0,0,.8,9.8a1.41,1.41,0,0,0-.1.4H.42q0-.76,0-3.24H.75a4.66,4.66,0,0,0,.6,2.18A1.73,1.73,0,0,0,2.93,10,1.61,1.61,0,0,0,4,9.62a1.22,1.22,0,0,0,.42-1A1.66,1.66,0,0,0,4,7.47,6.89,6.89,0,0,0,2.62,6.39q-.72-.47-1.15-.82a3,3,0,0,1-.71-.82,2.14,2.14,0,0,1-.28-1.1A2,2,0,0,1,.85,2.44a2.16,2.16,0,0,1,1-.74,3.66,3.66,0,0,1,1.34-.24A3.36,3.36,0,0,1,4.17,1.58Z" transform="translate(-0.42 -0.72)"/><path d="M9.5,3.91h1.42v.24H9.5V9a.8.8,0,0,0,.13.51.5.5,0,0,0,.4.15q.52,0,.82-.72L11,9A1.66,1.66,0,0,1,9.4,10.28a1.63,1.63,0,0,1-1.2-.41,1.29,1.29,0,0,1-.34-.63,4.69,4.69,0,0,1-.09-1V4.15h-1V3.91h1V2.33A3.67,3.67,0,0,0,9.5,1.94Z" transform="translate(-0.42 -0.72)"/><path d="M16.35,8.34l.22.07a2.86,2.86,0,0,1-.86,1.33,2.24,2.24,0,0,1-1.54.55,2.62,2.62,0,0,1-2-.81,3.41,3.41,0,0,1-.75-2.39,3.49,3.49,0,0,1,.8-2.48,2.79,2.79,0,0,1,2.14-.86q2.26,0,2.26,2.66H13.22q0,.18,0,.56a3.42,3.42,0,0,0,.22,1.32,1.67,1.67,0,0,0,.58.77,1.33,1.33,0,0,0,.76.24A1.81,1.81,0,0,0,16.35,8.34Zm-2.8-3.81a4.28,4.28,0,0,0-.35,1.65h1.88a4.57,4.57,0,0,0-.19-1.57Q14.68,4,14.26,4A.82.82,0,0,0,13.55,4.53Z" transform="translate(-0.42 -0.72)"/><path d="M17.72,9.8a1.45,1.45,0,0,1-.38-1,1.39,1.39,0,0,1,.28-.89,1.93,1.93,0,0,1,.68-.55,10.14,10.14,0,0,1,1-.41,5.31,5.31,0,0,0,1-.41A.57.57,0,0,0,20.61,6V5.05a1.2,1.2,0,0,0-.23-.79A.89.89,0,0,0,19.65,4a1.22,1.22,0,0,0-.88.29,1.11,1.11,0,0,1,.52.36.89.89,0,0,1,.19.56.81.81,0,0,1-.28.65,1,1,0,0,1-.67.24.81.81,0,0,1-.65-.26,1,1,0,0,1-.23-.66,1,1,0,0,1,.16-.57,1.61,1.61,0,0,1,.5-.44,2.78,2.78,0,0,1,.8-.3,4.68,4.68,0,0,1,1-.11,3.83,3.83,0,0,1,1,.12,1.6,1.6,0,0,1,.72.41,1.33,1.33,0,0,1,.35.65,4.78,4.78,0,0,1,.09,1V9.23a1.09,1.09,0,0,0,.05.41.21.21,0,0,0,.21.12.74.74,0,0,0,.43-.2l.12.2a2,2,0,0,1-1.32.44,1.29,1.29,0,0,1-.92-.26,1,1,0,0,1-.28-.71,2,2,0,0,1-1.76,1A1.51,1.51,0,0,1,17.72,9.8Zm2.89-.86V6.48A1.83,1.83,0,0,1,20,7a2.92,2.92,0,0,0-.71.6,1.35,1.35,0,0,0-.24.86,1.09,1.09,0,0,0,.2.73.68.68,0,0,0,.54.23A1,1,0,0,0,20.61,8.94Z" transform="translate(-0.42 -0.72)"/><path d="M29.91,9.66a.67.67,0,0,0,.31.2v.25l-1.26,0-1.55,0V9.86a.49.49,0,0,0,.26-.06.19.19,0,0,0,.1-.17.46.46,0,0,0-.06-.18L26.52,7.31A.72.72,0,0,0,26.27,7a.94.94,0,0,0-.34-.1V9a1.09,1.09,0,0,0,.16.68.71.71,0,0,0,.56.19v.25l-1.56,0-1.66,0V9.86A.79.79,0,0,0,24,9.68,1,1,0,0,0,24.21,9V2.16a1.44,1.44,0,0,0-.17-.8.67.67,0,0,0-.59-.25V.85q.38,0,.74,0A7.72,7.72,0,0,0,25.94.72v6a1.46,1.46,0,0,0,.41-.1.85.85,0,0,0,.31-.22l.91-.89a1.1,1.1,0,0,0,.4-.73.5.5,0,0,0-.25-.44A1.38,1.38,0,0,0,27,4.15V3.91q.66,0,1.4,0,1,0,1.4,0v.24a3.27,3.27,0,0,0-1.5.92l-.77.79,2,3.37A4.41,4.41,0,0,0,29.91,9.66Z" transform="translate(-0.42 -0.72)"/><path d="M41.58,2a.41.41,0,0,0-.25.28,2.31,2.31,0,0,0-.07.66v6a2.32,2.32,0,0,0,.07.66.41.41,0,0,0,.25.28,2,2,0,0,0,.59.1v.24q-.59,0-1.82,0t-1.88,0V9.87a2.07,2.07,0,0,0,.58-.1.41.41,0,0,0,.25-.28,2.32,2.32,0,0,0,.07-.66V6H36.18V8.84a2.32,2.32,0,0,0,.07.66.41.41,0,0,0,.25.28,2,2,0,0,0,.59.1v.24q-.65,0-1.81,0t-1.9,0V9.87a2.08,2.08,0,0,0,.58-.1.42.42,0,0,0,.25-.28,2.38,2.38,0,0,0,.07-.66v-6a2.37,2.37,0,0,0-.07-.66A.42.42,0,0,0,34,2a2.1,2.1,0,0,0-.58-.1V1.62q.61,0,1.9,0t1.81,0v.24a2.06,2.06,0,0,0-.59.1.41.41,0,0,0-.25.28,2.31,2.31,0,0,0-.07.66V5.72h3.18V2.89a2.31,2.31,0,0,0-.07-.66A.41.41,0,0,0,39,2a2.09,2.09,0,0,0-.58-.1V1.62q.67,0,1.88,0t1.82,0v.24A2.05,2.05,0,0,0,41.58,2Z" transform="translate(-0.42 -0.72)"/><path d="M47.88,4.53A3.42,3.42,0,0,1,48.67,7a3.4,3.4,0,0,1-.78,2.48,3.37,3.37,0,0,1-4.31,0A3.38,3.38,0,0,1,42.78,7a3.4,3.4,0,0,1,.79-2.49,3.35,3.35,0,0,1,4.31,0Zm-3,.2A6.41,6.41,0,0,0,44.6,7,6.36,6.36,0,0,0,44.9,9.3q.31.74.82.74t.83-.74A6.44,6.44,0,0,0,46.85,7a6.38,6.38,0,0,0-.31-2.29Q46.24,4,45.72,4T44.9,4.73Z" transform="translate(-0.42 -0.72)"/><path d="M55.38,8.81a1.45,1.45,0,0,0,.17.8.67.67,0,0,0,.59.25v.25c-.25,0-.5,0-.74,0a7.74,7.74,0,0,0-1.75.17V9.17a2,2,0,0,1-1.93,1.12,1.65,1.65,0,0,1-1.31-.47,1.45,1.45,0,0,1-.28-.59,4.21,4.21,0,0,1-.09-1v-3a1.45,1.45,0,0,0-.17-.8.67.67,0,0,0-.59-.25V3.91q.37,0,.74,0a7.72,7.72,0,0,0,1.75-.17v5a1.51,1.51,0,0,0,.15.76.61.61,0,0,0,.57.25,1,1,0,0,0,.82-.4,1.47,1.47,0,0,0,.34-1V5.22a1.43,1.43,0,0,0-.17-.8.67.67,0,0,0-.59-.25V3.91q.38,0,.74,0a7.71,7.71,0,0,0,1.75-.17Z" transform="translate(-0.42 -0.72)"/><path d="M59.9,3.86a2,2,0,0,1,.59.26.39.39,0,0,0,.22.08.23.23,0,0,0,.19-.11.73.73,0,0,0,.1-.33h.25q0,.61,0,2.11h-.25a3,3,0,0,0-.47-1.33A1.21,1.21,0,0,0,59.4,4a.87.87,0,0,0-.59.2.71.71,0,0,0-.23.56,1,1,0,0,0,.28.7,6.07,6.07,0,0,0,.86.71l.35.25a6.21,6.21,0,0,1,1.08,1,1.67,1.67,0,0,1,.35,1.08,1.52,1.52,0,0,1-.31.94,1.94,1.94,0,0,1-.82.62,2.93,2.93,0,0,1-1.14.22A2.35,2.35,0,0,1,58.1,10a6,6,0,0,0-.55-.25.19.19,0,0,0-.21.08.83.83,0,0,0-.14.34h-.25q0-.68,0-2.4h.25Q57.48,10,58.86,10a.88.88,0,0,0,.59-.21.8.8,0,0,0,.25-.64,1.2,1.2,0,0,0-.15-.6,1.85,1.85,0,0,0-.38-.47q-.23-.2-.68-.56t-.82-.7a2.49,2.49,0,0,1-.48-.62,1.64,1.64,0,0,1-.2-.8,1.43,1.43,0,0,1,.6-1.21,2.39,2.39,0,0,1,1.46-.44A2.94,2.94,0,0,1,59.9,3.86Z" transform="translate(-0.42 -0.72)"/><path d="M67.34,8.34l.22.07a2.86,2.86,0,0,1-.86,1.33,2.24,2.24,0,0,1-1.54.55,2.62,2.62,0,0,1-2-.81,3.41,3.41,0,0,1-.75-2.39,3.49,3.49,0,0,1,.8-2.48,2.79,2.79,0,0,1,2.14-.86q2.26,0,2.26,2.66H64.2q0,.18,0,.56a3.43,3.43,0,0,0,.22,1.32,1.68,1.68,0,0,0,.58.77,1.33,1.33,0,0,0,.76.24A1.81,1.81,0,0,0,67.34,8.34Zm-2.8-3.81a4.29,4.29,0,0,0-.35,1.65h1.88a4.6,4.6,0,0,0-.19-1.57Q65.67,4,65.25,4A.83.83,0,0,0,64.53,4.53Z" transform="translate(-0.42 -0.72)"/><path d="M15.23,13.65a4.32,4.32,0,0,1,1,.58.44.44,0,0,0,.24.11c.08,0,.14-.06.19-.17a2,2,0,0,0,.11-.55H17q0,.82,0,2.9h-.28a5.93,5.93,0,0,0-.28-1.32,2,2,0,0,0-.62-.85,2,2,0,0,0-.71-.43,2.45,2.45,0,0,0-.86-.16,1.88,1.88,0,0,0-1.4.57A3.44,3.44,0,0,0,12,15.84a7.52,7.52,0,0,0-.26,2.05q0,4.15,2.3,4.15a1.4,1.4,0,0,0,.85-.24.63.63,0,0,0,.22-.25.9.9,0,0,0,.07-.37V20a2.55,2.55,0,0,0-.1-.82.58.58,0,0,0-.34-.35,2.63,2.63,0,0,0-.77-.12v-.24q.74,0,2.05,0,1.07,0,1.61,0v.24a.8.8,0,0,0-.35.1.42.42,0,0,0-.15.28,3.67,3.67,0,0,0,0,.66v2.38h-.24a1.38,1.38,0,0,0-.1-.47c-.06-.14-.14-.22-.25-.22a1.57,1.57,0,0,0-.65.25,4,4,0,0,1-2,.6,4.24,4.24,0,0,1-3.18-1.13A4.38,4.38,0,0,1,9.63,18a4.84,4.84,0,0,1,.56-2.36A4,4,0,0,1,11.73,14,4.42,4.42,0,0,1,14,13.45,3.39,3.39,0,0,1,15.23,13.65Z" transform="translate(-0.42 -0.72)"/><path d="M23.48,16.53A3.42,3.42,0,0,1,24.26,19a3.4,3.4,0,0,1-.78,2.48,2.92,2.92,0,0,1-2.16.78,2.92,2.92,0,0,1-2.15-.78A3.38,3.38,0,0,1,18.38,19a3.4,3.4,0,0,1,.79-2.49,2.91,2.91,0,0,1,2.15-.79A2.91,2.91,0,0,1,23.48,16.53Zm-3,.2A6.41,6.41,0,0,0,20.19,19a6.35,6.35,0,0,0,.31,2.28q.31.74.82.74t.83-.74a6.46,6.46,0,0,0,.3-2.29,6.41,6.41,0,0,0-.31-2.29q-.31-.74-.82-.74T20.49,16.73Z" transform="translate(-0.42 -0.72)"/><path d="M31,20.81a1.44,1.44,0,0,0,.17.8.67.67,0,0,0,.59.25v.25c-.25,0-.5,0-.74,0a7.71,7.71,0,0,0-1.75.17V21.17a2,2,0,0,1-1.93,1.12A1.65,1.65,0,0,1,26,21.81a1.44,1.44,0,0,1-.28-.59,4.19,4.19,0,0,1-.09-1v-3a1.45,1.45,0,0,0-.17-.8.67.67,0,0,0-.59-.25v-.25q.37,0,.74,0a7.71,7.71,0,0,0,1.75-.17v5a1.51,1.51,0,0,0,.15.76.61.61,0,0,0,.57.25,1,1,0,0,0,.82-.4,1.48,1.48,0,0,0,.34-1V17.22a1.44,1.44,0,0,0-.17-.8.67.67,0,0,0-.59-.25v-.25q.38,0,.74,0A7.72,7.72,0,0,0,31,15.78Z" transform="translate(-0.42 -0.72)"/><path d="M37.22,16.07a1.16,1.16,0,0,1,.28.78,1,1,0,0,1-.26.73.87.87,0,0,1-.68.28,1,1,0,0,1-.65-.21.7.7,0,0,1-.24-.56,1.09,1.09,0,0,1,.53-.94h-.14a.62.62,0,0,0-.19,0,1.14,1.14,0,0,0-.77.55,1.76,1.76,0,0,0-.32,1v3.18a.94.94,0,0,0,.27.77,1.37,1.37,0,0,0,.86.22v.25h-.28l-1.63,0-1.48,0h-.24v-.25a.78.78,0,0,0,.6-.19A1,1,0,0,0,33,21V17.22a1.49,1.49,0,0,0-.17-.8.67.67,0,0,0-.6-.25v-.25q.38,0,.74,0a7.52,7.52,0,0,0,1.75-.17v1.12a2,2,0,0,1,.66-.83,1.61,1.61,0,0,1,1-.32A1,1,0,0,1,37.22,16.07Z" transform="translate(-0.42 -0.72)"/><path d="M47.7,21.68a.78.78,0,0,0,.59.19v.25l-1.58,0-1.49,0v-.25a.51.51,0,0,0,.45-.18A1.29,1.29,0,0,0,45.8,21V17.27a1.48,1.48,0,0,0-.15-.75.61.61,0,0,0-.57-.25,1,1,0,0,0-.77.37,1.6,1.6,0,0,0-.39.91V21a1.12,1.12,0,0,0,.15.68.67.67,0,0,0,.55.19v.25l-1.51,0-1.49,0v-.25a.5.5,0,0,0,.45-.19,1.29,1.29,0,0,0,.13-.68V17.27a1.64,1.64,0,0,0-.13-.75.53.53,0,0,0-.52-.25,1,1,0,0,0-.82.4,1.47,1.47,0,0,0-.34,1V21a1.29,1.29,0,0,0,.13.68.5.5,0,0,0,.45.19v.25l-1.42,0-1.66,0v-.25a.78.78,0,0,0,.6-.19,1,1,0,0,0,.17-.68V17.22a1.48,1.48,0,0,0-.17-.8.67.67,0,0,0-.6-.25v-.25q.38,0,.74,0a7.52,7.52,0,0,0,1.75-.17v1.08a1.89,1.89,0,0,1,1.86-1.12,1.67,1.67,0,0,1,1.32.47,1.31,1.31,0,0,1,.3.72,1.94,1.94,0,0,1,.82-.92,2.44,2.44,0,0,1,1.18-.27,1.67,1.67,0,0,1,1.32.47,1.31,1.31,0,0,1,.28.59,4.65,4.65,0,0,1,.08,1V21A1,1,0,0,0,47.7,21.68Z" transform="translate(-0.42 -0.72)"/><path d="M53.85,20.34l.22.07a2.86,2.86,0,0,1-.86,1.33,2.24,2.24,0,0,1-1.54.55,2.62,2.62,0,0,1-2-.81,3.41,3.41,0,0,1-.75-2.39,3.49,3.49,0,0,1,.8-2.48,2.79,2.79,0,0,1,2.13-.86q2.26,0,2.26,2.66H50.72c0,.12,0,.31,0,.56a3.43,3.43,0,0,0,.22,1.32,1.67,1.67,0,0,0,.58.77,1.33,1.33,0,0,0,.76.24A1.81,1.81,0,0,0,53.85,20.34ZM51,16.53a4.28,4.28,0,0,0-.35,1.65h1.88a4.55,4.55,0,0,0-.19-1.57c-.14-.41-.35-.62-.63-.62A.82.82,0,0,0,51,16.53Z" transform="translate(-0.42 -0.72)"/><path d="M57.22,15.91h1.42v.24H57.22V21a.8.8,0,0,0,.13.51.49.49,0,0,0,.4.15c.34,0,.62-.24.82-.72l.2.11a1.66,1.66,0,0,1-1.64,1.24,1.62,1.62,0,0,1-1.2-.41,1.29,1.29,0,0,1-.34-.63,4.72,4.72,0,0,1-.09-1V16.15h-1v-.24h1V14.33a3.68,3.68,0,0,0,1.73-.38Z" transform="translate(-0.42 -0.72)"/></svg>